<svg width="129" height="41" viewBox="0 0 129 41" fill="none" xmlns="http://www.w3.org/2000/svg">
<g id="Dilato svg" clip-path="url(#clip0_827_7192)">
<path id="Vector" d="M60.9483 27.5808C65.1804 27.5808 67.2817 25.0798 67.2817 20.1358C67.2817 15.9192 65.1804 13.7961 60.9483 13.7961H56.7455V27.5808H60.9483ZM52.9517 30.8381V10.5391H60.9483C67.6904 10.5391 71.0467 13.7381 71.0467 20.136C71.0467 27.2609 67.6901 30.8381 60.9483 30.8381H52.9517ZM77.6711 10.5391V13.5053H73.9062V10.5391H77.6711ZM77.6711 15.9192V30.8381H73.9062V15.9192H77.6711ZM81.2455 10.5391H85.0104V30.8381H81.2455V10.5391ZM87.884 26.1849C87.884 23.2186 90.0439 21.7353 94.3631 21.7353C95.3848 21.7353 96.4063 21.8517 97.4277 22.0261V20.921C97.4277 19.5834 96.4645 18.9145 94.5383 18.9145C92.904 18.9145 91.0653 19.1473 89.0807 19.6127V16.646C91.0653 16.1517 92.904 15.9189 94.5384 15.9189C98.9744 15.9189 101.193 17.5765 101.193 20.8337V30.8378H99.0039L97.6612 29.5001C96.3479 30.4017 94.9176 30.8378 93.3709 30.8378C89.6936 30.8378 87.884 29.2966 87.884 26.1847V26.1849ZM97.4277 24.5855C96.4645 24.4111 95.4431 24.2947 94.3631 24.2947C92.5538 24.2947 91.649 24.9343 91.649 26.1558C91.649 27.4644 92.4077 28.1333 93.9254 28.1333C95.1804 28.1333 96.3477 27.7555 97.4277 26.9701V24.5853V24.5855ZM104.555 13.5053H107.327L107.911 15.9189H111.676V18.9145H108.32V25.7777C108.32 27.1736 108.933 27.8425 110.129 27.8425H111.676V30.8381H108.32C105.81 30.8381 104.555 29.5003 104.555 26.8248V13.5053ZM117.3 23.335C117.3 26.4469 118.526 27.988 120.948 27.988C123.371 27.988 124.568 26.4466 124.568 23.335C124.568 20.2814 123.371 18.7691 120.948 18.7691C118.526 18.7691 117.3 20.2814 117.3 23.335ZM113.535 23.3931C113.535 18.391 115.987 15.89 120.948 15.89C125.881 15.89 128.333 18.391 128.333 23.3931C128.333 28.3661 125.881 30.8669 120.948 30.8669C116.016 30.8669 113.535 28.3661 113.535 23.3931Z" fill="white"/>
<path id="Vector_2" fill-rule="evenodd" clip-rule="evenodd" d="M12.5528 19.6038C5.59731 16.0756 0.915922 8.88243 0.908691 0.700195H17.9777C18.9849 0.700195 23.6914 1.26839 27.9073 4.39746C27.5607 14.2556 26.2577 17.2876 18.1113 18.2048C16.1623 18.4242 14.2961 18.9024 12.5528 19.6038Z" fill="#1D4ED8"/>
<path id="Vector_3" fill-rule="evenodd" clip-rule="evenodd" d="M0.67041 40.7006C0.682752 29.9197 8.80833 20.8623 19.5592 19.6534C27.7592 18.7234 29.0222 15.661 29.3643 5.64258C30.901 7.07475 35.2873 10.255 35.2873 21.0544C35.2873 39.0825 21.3945 40.7005 19.8142 40.7005H0.67041L0.67041 40.7006Z" fill="#10B981"/>
</g>
<defs>
<clipPath id="clip0_827_7192">
<rect width="127.66" height="40" fill="white" transform="translate(0.67041 0.700195)"/>
</clipPath>
</defs>
</svg>
