<svg width="181" height="41" viewBox="0 0 181 41" fill="none" xmlns="http://www.w3.org/2000/svg">
<g id="iTernity svg" clip-path="url(#clip0_827_7169)">
<g id="Group">
<g id="Group_2">
<g id="Group_3">
<g id="Group_4">
<g id="Group_5">
<path id="Vector" d="M0.67041 16.7988H5.80774V32.2486H0.67041V16.7988Z" fill="white"/>
<path id="Vector_2" d="M8.59619 10.4639H26.5492V13.0318H20.3623V32.2346H15.004V13.0459H8.59619V10.4639Z" fill="#8AB925"/>
<path id="Vector_3" d="M37.655 27.3106H42.3781C42.2676 28.524 41.9085 29.4975 41.3285 30.203C40.0856 31.6986 37.7931 32.4464 34.3959 32.4464C30.7776 32.4464 28.3471 31.5434 27.1042 29.7374C26.3308 28.5804 25.9165 27.0002 25.9165 24.9825C25.9165 22.4429 26.5794 20.5522 27.9051 19.2965C29.2309 18.0407 31.3577 17.4199 34.2578 17.4199C38.677 17.4199 41.3285 19.0002 42.24 22.1748C42.4333 22.9367 42.5438 24.0372 42.5438 25.4622H30.971C31.0815 28.5381 32.2691 30.076 34.4787 30.076C36.5226 30.0901 37.5722 29.173 37.655 27.3106ZM30.9986 23.5575H37.3788C37.2131 22.0901 36.9093 21.0884 36.4674 20.5522C36.0254 20.016 35.2521 19.748 34.2025 19.748C33.1806 19.748 32.4348 20.016 31.9929 20.5522C31.5234 21.0884 31.1919 22.0901 30.9986 23.5575Z" fill="white"/>
<path id="Vector_4" d="M47.1001 17.6593H52.2374V19.4794C53.5908 18.0967 55.5518 17.363 58.1205 17.2783V20.072C57.8443 20.072 57.5405 20.072 57.209 20.072C55.0823 20.072 53.6184 20.4811 52.7898 21.3136C52.4308 21.7087 52.2374 22.4 52.2374 23.3736V32.2483H47.1001V17.6593Z" fill="white"/>
<path id="Vector_5" d="M62.5962 17.6599H67.7335V19.3248C69.225 18.0691 71.1032 17.4482 73.4233 17.4482C75.7986 17.4482 77.4558 17.9985 78.3672 19.0708C78.7815 19.5788 78.9749 20.51 78.9749 21.8786V32.2489H73.8376V22.5135C73.8376 21.5117 73.6166 20.8204 73.1471 20.4112C72.7051 20.0161 71.9318 19.8045 70.8822 19.8045C69.7222 19.8045 68.9212 20.0303 68.4516 20.4959C67.9821 20.9474 67.7335 21.7375 67.7335 22.838V32.2489H62.5962V17.6599Z" fill="white"/>
<path id="Vector_6" d="M83.9712 17.6592H89.1085V32.2482H83.9712V17.6592Z" fill="white"/>
<path id="Vector_7" d="M96.2368 13.582H101.374V17.6596H104.109V19.7478H101.374V32.2487H96.2368V19.7478H93.5024V17.6596H96.2368V13.582Z" fill="white"/>
<path id="Vector_8" d="M106.401 17.6592H112.146L116.234 27.8461L120.984 17.6592H126.122L114.88 38.2024H109.55L113.775 31.0772L106.401 17.6592Z" fill="white"/>
</g>
<path id="Vector_9" d="M5.80774 10.4639H0.67041V13.0318H5.80774V10.4639Z" fill="white"/>
<path id="Vector_10" d="M88.8602 10.3936H83.9438V12.905H88.8602V10.3936Z" fill="white"/>
</g>
<path id="Vector_11" d="M158.904 0.700195H139.846V10.4356H158.904V0.700195Z" fill="white" stroke="white" stroke-width="0.6"/>
<path id="Vector_12" d="M137.111 0.700195H118.053V10.4356H137.111V0.700195Z" fill="#8AB925"/>
<path id="Vector_13" d="M180.67 0.700195H161.612V10.4356H180.67V0.700195Z" fill="#8AB925"/>
<path id="Vector_14" d="M158.904 11.832H139.846V21.5675H158.904V11.832Z" fill="white" stroke="white" stroke-width="0.6"/>
</g>
</g>
</g>
</g>
<defs>
<clipPath id="clip0_827_7169">
<rect width="180" height="40" fill="white" transform="translate(0.67041 0.700195)"/>
</clipPath>
</defs>
</svg>
