<svg width="180" height="34" viewBox="0 0 180 34" fill="none" xmlns="http://www.w3.org/2000/svg">
<g id="Palo Alto Networks svg" clip-path="url(#clip0_838_11253)">
<g id="Group">
<path id="Vector" fill-rule="evenodd" clip-rule="evenodd" d="M76.0302 20.7737C74.3233 20.7737 73.4957 20.1017 73.4957 19.0678V19.0161C73.4957 18.0857 74.0129 17.4137 75.875 17.1552L76.7026 17.0518C77.8922 16.8967 78.6164 16.6383 79.2888 16.2764V17.6204C79.2888 19.6364 77.9957 20.7737 76.0302 20.7737ZM76.4957 6.2998C74.1681 6.2998 71.7371 6.92011 68.7888 8.52257L70.444 12.658C73.0302 11.2106 75.2026 10.5903 76.7543 10.5903C78.5129 10.5903 79.3405 11.2623 79.3405 12.141V12.1927C79.3405 12.813 78.875 13.1232 77.6853 13.2783L75.6164 13.485C70.4957 14.0537 68.375 16.2764 68.375 19.378V19.5847C68.375 22.5312 70.806 24.8573 74.2198 24.8573C76.444 24.8573 78.4095 23.9269 79.5991 22.221L79.9612 24.5472H84.6164V13.8986C84.5647 8.88442 81.6681 6.2998 76.4957 6.2998Z" fill="white"/>
<path id="Vector_2" fill-rule="evenodd" clip-rule="evenodd" d="M32.7414 6.4036L26.7931 0.458984L20.8448 6.4036L23.7931 9.40175L8.89655 24.3925L14.8448 30.3888L20.7931 24.3925L17.8448 21.3944L32.7414 6.4036ZM0 15.4498L5.94828 21.3944L20.8448 6.4036L14.8966 0.458984L0 15.4498ZM20.7931 24.3925L26.7414 30.3888L41.6379 15.3981L35.7414 9.40175L20.7931 24.3925Z" fill="#FA582D"/>
<path id="Vector_3" fill-rule="evenodd" clip-rule="evenodd" d="M87.5706 24.4956H92.8464V0.251953H87.5706V24.4956ZM61.6568 15.708C61.6568 18.4476 60.2602 20.412 57.8809 20.412C55.5016 20.412 54.1051 18.4476 54.1051 15.708V15.3978C54.1051 12.6581 55.5016 10.6938 57.8809 10.6938C60.2602 10.6938 61.6568 12.6581 61.6568 15.3978V15.708ZM59.4327 6.29995C57.0533 6.29995 55.0878 7.38549 54.0533 9.03965L53.6395 6.61011H48.9844V30.5953H54.2602V22.2729C55.243 23.8236 57.1568 24.8058 59.4327 24.8058C63.674 24.8058 67.0878 21.0323 67.0878 15.863V15.2427C67.1395 10.0735 63.674 6.29995 59.4327 6.29995ZM167.95 15.708C167.95 18.4476 166.553 20.412 164.174 20.412C161.795 20.412 160.398 18.4476 160.398 15.708V15.3978C160.398 12.6581 161.795 10.6938 164.174 10.6938C166.553 10.6938 167.95 12.6581 167.95 15.3978V15.708ZM164.174 6.29995C158.795 6.29995 154.967 10.0735 154.967 15.2427V15.863C154.967 21.0323 158.795 24.8058 164.174 24.8058C169.553 24.8058 173.381 21.0323 173.381 15.863V15.2427C173.381 10.0735 169.553 6.29995 164.174 6.29995ZM176.64 6.92026H177.26C177.622 6.92026 177.777 7.02365 177.777 7.3338V7.38549C177.777 7.64395 177.622 7.79903 177.26 7.79903H176.64V6.92026ZM178.346 7.38549V7.28211C178.346 6.76518 177.933 6.40334 177.26 6.40334H176.071V9.19472H176.64V8.26426H177.26L177.726 9.19472H178.346L177.777 8.10918C178.14 8.0058 178.346 7.74734 178.346 7.38549Z" fill="white"/>
<path id="Vector_4" fill-rule="evenodd" clip-rule="evenodd" d="M177.15 10.2803C175.753 10.2803 174.719 9.24641 174.719 7.79903C174.719 6.35164 175.753 5.3178 177.15 5.3178C178.546 5.3178 179.581 6.35164 179.581 7.79903C179.581 9.24641 178.546 10.2803 177.15 10.2803ZM177.15 4.95595C175.495 4.95595 174.305 6.19657 174.305 7.85072C174.305 9.50488 175.546 10.7455 177.15 10.7455C178.753 10.7455 179.995 9.50488 179.995 7.85072C179.995 6.19657 178.753 4.95595 177.15 4.95595ZM134.115 24.4956H139.391V0.251953H134.115V24.4956ZM149.788 20.412C148.236 20.412 147.667 19.6366 147.667 18.0341V10.6938H153.874V6.61011H147.667V2.52641L142.391 3.3018V18.551C142.391 22.6864 144.512 24.8058 148.753 24.8058C150.615 24.8058 152.839 24.2372 154.65 23.2033L153.15 19.4298C152.064 19.9984 150.564 20.412 149.788 20.412ZM122.529 20.7738C120.822 20.7738 119.995 20.1018 119.995 19.068V19.0163C119.995 18.0858 120.512 17.4138 122.374 17.1553L123.202 17.052C124.391 16.8969 125.115 16.6384 125.788 16.2766V17.6206C125.788 19.6366 124.546 20.7738 122.529 20.7738ZM122.995 6.29995C120.667 6.29995 118.236 6.92026 115.288 8.52272L116.943 12.6581C119.529 11.2107 121.702 10.5904 123.253 10.5904C125.012 10.5904 125.839 11.2624 125.839 12.1412V12.1929C125.839 12.8132 125.374 13.1233 124.184 13.2784L122.115 13.4852C116.995 14.0538 114.874 16.2766 114.874 19.3781V19.5849C114.874 22.5313 117.305 24.8575 120.719 24.8575C122.943 24.8575 124.908 23.927 126.098 22.2212L126.46 24.5473H131.115V13.8987C131.064 8.88457 128.219 6.29995 122.995 6.29995ZM108.202 15.708C108.202 18.4476 106.805 20.412 104.426 20.412C102.046 20.412 100.65 18.4476 100.65 15.708V15.3978C100.65 12.6581 102.046 10.6938 104.426 10.6938C106.805 10.6938 108.202 12.6581 108.202 15.3978V15.708ZM104.426 6.29995C99.0463 6.29995 95.2188 10.0735 95.2188 15.2427V15.863C95.2188 21.0323 99.0463 24.8058 104.426 24.8058C109.805 24.8058 113.633 21.0323 113.633 15.863V15.2427C113.633 10.0735 109.805 6.29995 104.426 6.29995ZM126.046 28.7861H127.391L129.253 31.2673V28.7861H130.495V33.1283H129.202L127.288 30.5953V33.1283H126.046V28.7861ZM132.202 28.7861H135.977L136.029 29.8716H133.495V30.492H135.512V31.4741H133.495V32.1461H136.133L136.081 33.2316H132.202V28.7861ZM138.77 29.9233H137.27L137.322 28.7861H141.564L141.615 29.9233H140.115V33.18H138.822V29.9233M142.65 28.7861H144.046L144.77 31.836H144.822L145.753 28.7861H147.046L147.926 31.836H147.977L148.65 28.7861H149.995L148.857 33.1283H147.15L146.374 30.492H146.322L145.495 33.1283H143.788L142.65 28.7861ZM154.598 31.0089C154.598 30.2335 154.184 29.82 153.408 29.82C152.633 29.82 152.219 30.2852 152.219 31.0089C152.219 31.7843 152.633 32.1978 153.408 32.1978C154.184 32.1978 154.598 31.7326 154.598 31.0089ZM150.926 31.0089C150.926 29.5615 151.908 28.6827 153.408 28.6827C154.908 28.6827 155.891 29.5615 155.891 31.0089C155.891 32.4563 154.908 33.335 153.408 33.335C151.908 33.2833 150.926 32.4046 150.926 31.0089ZM159.667 31.0089C160.081 31.0089 160.236 30.7504 160.236 30.4403C160.236 30.1301 160.081 29.8716 159.667 29.8716H158.581V31.0089H159.667ZM157.339 28.7861H159.874C161.012 28.7861 161.581 29.3547 161.581 30.3369C161.581 31.0606 161.27 31.5258 160.753 31.7326L161.788 33.1283H160.288L159.512 31.991H158.633V33.1283H157.339V28.7861ZM163.288 28.7861H164.581V30.3886H165.098L166.391 28.7861H167.839L166.184 30.8538L167.943 33.1283H166.443L165.15 31.4741H164.633V33.1283H163.339V28.7861M168.926 32.8698V31.6809C169.65 32.0427 170.374 32.2495 170.995 32.2495C171.46 32.2495 171.719 32.1461 171.719 31.9393C171.719 31.7326 171.564 31.6809 170.633 31.5258C169.598 31.3707 168.926 31.0606 168.926 30.1818C168.926 29.3547 169.65 28.7344 171.046 28.7344C171.615 28.7344 172.184 28.8378 172.753 29.0963V30.2852C172.236 29.975 171.564 29.82 170.995 29.82C170.477 29.82 170.322 29.9233 170.322 30.1301C170.322 30.3886 170.633 30.3886 171.408 30.5436C172.443 30.6987 173.115 31.0089 173.115 31.9393C173.115 32.663 172.598 33.3867 171.046 33.3867C170.167 33.2833 169.598 33.1283 168.926 32.8698Z" fill="white"/>
</g>
</g>
<defs>
<clipPath id="clip0_838_11253">
<rect width="180" height="33.6" fill="white" transform="translate(0 0.200195)"/>
</clipPath>
</defs>
</svg>
