<svg width="181" height="38" viewBox="0 0 181 38" fill="none" xmlns="http://www.w3.org/2000/svg">
<g id="Zscaler svg" clip-path="url(#clip0_827_7224)">
<g id="nav">
<path id="Vector" d="M60.3312 18.9884C61.271 24.9721 56.1384 28.2884 50.8613 28.6489C47.536 35.4977 35.7529 40.1117 25.5601 35.0652C21.2228 35.714 18.8372 34.6326 16.9577 32.5419C20.7167 27.7838 31.9939 19.1326 45.8011 23.6745C53.1746 26.0535 55.1264 20.5024 53.2469 18.4117C46.3071 10.5535 30.6204 17.6186 30.042 18.1954C36.1866 8.75121 58.3071 6.15586 60.3312 18.9884ZM39.2228 8.10237C39.2228 8.10237 34.2348 6.30004 27.1505 9.32795C26.8613 9.25586 26.5722 9.11167 26.283 8.96749C33.0782 4.49772 39.0059 2.55121 44.1384 3.34423C41.1023 -0.188329 26.283 -2.78368 17.7529 5.65121C7.27097 3.56051 -0.03024 12.4279 0.331206 20.5745C0.692652 28.721 9.58422 33.7675 14.6445 32.3977C14.789 32.3977 14.8613 32.3977 15.0059 32.3977C16.1625 26.9907 20.7167 14.5186 39.2228 8.10237ZM81.5119 15.6L82.4517 11.4907H66.6926L66.2589 13.0768C65.9698 14.014 66.4758 15.0954 67.4878 15.3838C67.7047 15.4559 67.9216 15.4559 68.2107 15.4559H75.5119L62.4999 26.8466L61.6324 30.6675H78.3312L79.271 26.4861H68.7167L81.5119 15.6ZM91.9939 18.9163C91.271 18.7 87.0782 18.1233 87.3673 16.6814C87.6565 15.0954 89.6083 14.9512 90.6204 14.9512C92.5722 15.0233 93.2228 15.8884 93.2951 16.1768C93.5119 16.9698 94.3071 17.4745 95.1023 17.4024H98.2107C98.5722 15.4559 98.6445 11.0582 91.4155 11.0582C89.1023 11.0582 85.9939 11.6349 83.9698 14.014C82.8854 15.2396 81.0059 18.4117 82.8854 20.7907C83.8975 22.0163 86.4999 22.8814 89.3914 23.4582C91.1987 23.8186 92.2107 24.5396 91.9939 25.4047C91.8493 25.9814 91.1264 27.2791 88.4517 27.2791C87.2228 27.2791 84.6204 27.0628 85.1264 24.3954H80.2107C79.6324 26.8466 79.4155 31.1 86.9336 31.1C89.8252 31.1 95.7529 30.7396 97.271 24.6117C98.3553 20.1419 93.3673 19.2768 91.9939 18.9163ZM109.416 25.7652C108.548 26.5582 107.391 26.9907 106.235 26.9186C102.476 26.9186 102.91 23.314 103.416 21.0791C103.922 18.8442 105.15 15.3117 108.693 15.3117C111.223 15.3117 111.512 16.9698 111.584 17.4024H116.644C116.5 12.0675 112.379 11.0582 109.488 11.1303C101.536 11.3466 99.2228 17.907 98.4999 21.007C96.4035 30.0187 102.187 31.1 104.934 31.1C109.271 31.2442 113.247 28.721 115.054 24.828H111.44C110.717 24.828 109.922 25.1163 109.416 25.7652ZM130.09 27.6396C128.644 29.3698 126.62 30.5233 124.379 30.8117C119.97 31.5326 113.897 31.3163 115.416 25.0442C115.922 23.0256 116.644 21.728 118.163 20.7186C120.693 19.0605 124.09 18.8442 125.175 18.7C125.536 18.7 128.355 18.4838 128.789 16.8256C129.223 15.1675 126.693 15.0954 125.97 15.0954C123.801 15.0954 123.078 15.9605 122.644 16.4652H117.801C119.753 11.3466 125.175 11.1303 126.62 11.1303C128.283 11.1303 134.789 11.1303 133.56 16.5373C131.825 24.828 131.753 25.6931 130.09 27.6396ZM127.994 21.0791C126.982 21.4396 125.97 21.8 124.958 22.0163C123.946 22.3047 122.066 22.4489 121.126 23.314C120.331 24.0349 118.958 27.1349 122.283 27.207C124.958 27.2791 127.271 25.3326 127.632 22.7373C127.705 22.0163 127.994 21.0791 127.994 21.0791ZM140.5 5.93958H137.897L132.187 30.8117H137.247L142.452 8.31865C142.741 7.38144 142.235 6.30004 141.295 6.01167C141.006 5.93958 140.717 5.93958 140.5 5.93958ZM153.584 24.9H157.199C155.319 28.7931 151.416 31.2442 147.078 31.1721C139.343 31.1721 139.849 24.3233 140.644 21.0791C142.813 12.0675 148.885 11.2024 151.632 11.2024C155.247 11.2024 160.885 12.7163 157.994 22.5931H145.488C145.199 23.8907 144.91 27.1349 148.379 27.0628C149.319 27.1349 150.259 26.8466 151.054 26.3419C151.488 25.9814 151.922 24.9 153.584 24.9ZM146.211 19.2768H153.584C154.235 15.7442 151.994 15.3838 150.765 15.3838C149.753 15.3117 147.223 15.7442 146.211 19.2768ZM164.5 13.7256C161.102 16.0326 159.946 19.7093 159.584 21.5117C159.295 22.8814 157.416 30.8117 157.416 30.8117H162.476C162.476 30.8117 164.428 22.0884 164.789 20.9349C165.223 19.5652 166.524 15.7442 171.584 15.9605L172.741 11.6349C169.849 11.4186 166.958 12.1396 164.5 13.7256ZM173.319 7.88609L173.464 7.30935H176.211L176.066 7.88609H175.054L174.476 10.5535H173.753L174.331 7.88609H173.319ZM177.801 7.30935L178.018 9.68842L179.319 7.30935H180.331L179.608 10.5535H178.958L179.536 7.95818L178.163 10.5535H177.584L177.295 7.95818L176.789 10.5535H176.138L176.861 7.30935H177.801Z" fill="#236BF5"/>
</g>
</g>
<defs>
<clipPath id="clip0_827_7224">
<rect width="180" height="37.2" fill="white" transform="translate(0.330078 0.100098)"/>
</clipPath>
</defs>
</svg>
