<svg width="165" height="54" viewBox="0 0 165 54" fill="none" xmlns="http://www.w3.org/2000/svg">
<g id="logo" clip-path="url(#clip0_852_73)">
<path id="Vector" d="M15.0254 23.0798V33.5894C15.0254 35.4767 14.9962 37.3639 15.0254 39.2476C15.0546 41.1312 15.7555 41.7773 17.5807 41.8029C20.2529 41.8321 22.9213 41.8029 25.7504 41.8029V46.8296C22.0306 46.4244 18.267 46.3112 14.6458 45.5263C11.6706 44.8839 8.84522 43.4967 5.99788 42.3286C4.73483 41.8102 4.53771 40.9085 5.18018 39.5433C7.93992 33.7975 10.5427 27.975 13.2768 22.2146C13.7076 21.3057 13.6419 20.7289 13.0943 19.9331C10.174 15.5526 9.07886 10.6062 8.78682 5.44084C8.80934 5.07236 8.86057 4.7062 8.94011 4.3457L16.4308 6.83165C16.2045 12.8257 17.526 17.9984 22.8081 21.1523C21.8919 19.2395 20.9063 17.2208 19.9608 15.1839C19.4498 14.0887 19.9608 13.4317 20.9464 12.8439C26.057 9.83232 33.2959 10.2886 37.9429 13.9719C38.4065 14.337 38.8591 14.702 39.8302 15.5088C40.1368 12.833 40.4909 10.5989 40.6077 8.35024C40.6661 7.1967 40.9728 6.63088 42.1263 6.32059C44.1085 5.79858 46.0359 5.06849 48.2189 4.34936C48.3632 8.58381 47.5548 12.7966 45.8534 16.6769C45.6605 17.2543 45.3798 17.7986 45.0211 18.2904C43.2579 20.2726 43.6704 22.1234 44.7911 24.3392C47.3464 29.4498 49.5914 34.6955 52.0591 39.8426C52.6067 40.9815 52.3694 41.5802 51.4276 42.2373C47.9268 44.6904 43.8931 45.5738 39.779 46.1031C37.023 46.4682 34.2267 46.5193 31.2954 46.7237V41.8065C34.0406 41.8065 36.7018 41.8065 39.3593 41.8065C41.3999 41.8065 42.0642 41.2444 42.0825 39.2512C42.13 34.0201 42.0825 28.7891 42.0825 23.5543C42.0554 23.3969 42.0049 23.2443 41.9328 23.1017C39.9506 24.5034 38.0415 25.9563 36.0264 27.2559C31.3575 30.2638 26.5754 30.7859 21.7422 27.5954C19.541 26.1461 17.3653 24.6531 15.0254 23.0798Z" fill="white"/>
<path id="Vector_2" d="M112.711 46.1142H109.659C109.659 44.0919 109.659 42.0988 109.659 40.1202C109.659 39.3901 109.692 38.66 109.63 37.93C109.495 36.269 108.495 35.2177 107.009 35.2213C105.341 35.2213 104.362 36.2033 104.202 37.7766C104.03 39.4631 104.129 41.1752 104.114 42.8873C104.114 43.913 104.114 44.9425 104.114 46.107H101.099C101.099 43.694 101.099 41.2227 101.099 38.755C101.099 36.4698 100.11 35.2213 98.3429 35.2323C96.5761 35.2432 95.616 36.5245 95.6014 38.7915C95.6014 41.208 95.6014 43.6246 95.6014 46.1434H92.7212C92.7212 42.8909 92.3562 39.6384 92.8125 36.5099C93.4039 32.4944 98.6277 30.5743 102.304 33.5604C103.932 33.0822 105.381 32.3776 106.874 32.2718C107.575 32.2082 108.282 32.2839 108.954 32.4946C109.625 32.7053 110.249 33.0468 110.788 33.4994C111.327 33.952 111.771 34.5069 112.095 35.1319C112.419 35.757 112.616 36.44 112.675 37.1415C112.886 40.0618 112.711 43.0406 112.711 46.1142Z" fill="white"/>
<path id="Subtract" fill-rule="evenodd" clip-rule="evenodd" d="M142.185 46.3478H138.717L145.835 26.0879H149.303L156.239 46.3478H152.954L151.128 41.0547L143.827 40.8722L142.185 46.3478ZM144.74 38.1344L150.398 38.3169L147.66 30.2859L144.74 38.1344Z" fill="white"/>
<path id="Vector_3" d="M58.8198 41.7847L61.5285 40.204C62.7331 42.8251 64.8139 43.8545 67.4787 43.212C67.9435 43.0695 68.3746 42.8343 68.746 42.5206C69.1174 42.2069 69.4215 41.8212 69.6397 41.3868C70.1472 40.2186 69.2966 39.3133 68.1796 38.8643C66.9384 38.3752 65.6753 37.9481 64.4123 37.5137C60.3311 36.1155 58.8162 33.7245 59.8931 30.3625C60.8093 27.5042 64.4816 25.887 67.9568 26.8982C70.0193 27.4969 71.6074 28.7052 72.4944 30.9721L70.3589 32.1986C68.8987 31.3116 67.7744 30.3259 66.4748 29.9207C65.095 29.4863 63.5837 29.8733 63.0361 31.4941C62.4593 33.1952 63.7114 33.907 65.0183 34.4144C66.65 35.0606 68.3366 35.5753 69.9537 36.2397C72.0673 37.1267 73.166 38.7293 73.0857 41.0875C73.0054 43.4456 71.7606 45.0737 69.6215 45.9754C65.3614 47.8006 60.5282 45.9608 58.8198 41.7847Z" fill="white"/>
<path id="Vector_4" d="M86.26 33.8451C86.625 31.4797 88.202 32.7208 89.4066 32.5091V46.0522C88.1837 46.096 86.7637 46.994 86.1797 44.9936C82.2956 47.3737 78.8605 47.0305 76.4074 44.0299C75.3139 42.6264 74.7472 40.8839 74.8059 39.1057C74.8646 37.3274 75.545 35.6261 76.7286 34.2978C79.2109 31.6293 82.73 31.4176 86.26 33.8451ZM81.9707 43.6283C82.5343 43.6649 83.0995 43.5871 83.6323 43.3995C84.1651 43.2119 84.6544 42.9185 85.0708 42.5369C85.4872 42.1553 85.8221 41.6933 86.0553 41.1789C86.2886 40.6645 86.4153 40.1082 86.4279 39.5435C86.4588 38.9813 86.3775 38.4185 86.1887 37.888C85.9999 37.3576 85.7073 36.87 85.3281 36.4538C84.9489 36.0375 84.4907 35.7009 83.98 35.4637C83.4694 35.2264 82.9167 35.0931 82.354 35.0717C81.7924 35.0325 81.2286 35.1096 80.6981 35.2981C80.1676 35.4865 79.6816 35.7824 79.2706 36.1671C78.8595 36.5518 78.5322 37.0171 78.309 37.5339C78.0858 38.0508 77.9716 38.6081 77.9735 39.1711C77.8749 41.6972 79.5468 43.5553 81.9707 43.6283Z" fill="white"/>
<path id="Vector_5" d="M87.1581 23.521H84.0918V17.7424C84.0918 17.0123 84.1173 16.2822 84.0735 15.5521C83.9457 13.4422 82.9491 12.3397 81.1531 12.285C79.2731 12.2266 77.8421 13.5225 77.7472 15.5704C77.6414 17.8154 77.7071 20.0677 77.6889 22.3164C77.6889 22.6814 77.6268 23.0209 77.583 23.4772H74.7466V4.43652H77.6669V10.8796C78.6416 10.3867 79.3425 9.89393 80.1237 9.66031C83.7084 8.59073 86.8952 10.6569 87.1471 14.4059C87.3187 17.3554 87.1581 20.3342 87.1581 23.521Z" fill="white"/>
<path id="Vector_6" d="M103.11 18.0161H92.6518C93.4439 21.3855 97.0323 22.0535 100.318 19.4507L102.544 20.7503C101.241 24.0722 95.9189 24.5139 93.2321 23.2435C89.8336 21.6373 88.2785 17.7679 89.6146 14.0079C90.8338 10.5619 94.623 8.68191 98.3756 9.66753C101.734 10.5509 103.804 14.059 103.11 18.0161ZM92.524 15.3549H100.044C99.5876 13.3253 98.4085 12.2922 96.5431 12.2155C94.5901 12.1389 93.265 13.1391 92.513 15.3549H92.524Z" fill="white"/>
<path id="Vector_7" d="M124.757 32.3516H127.765C127.765 36.002 127.864 39.5758 127.729 43.1386C127.656 45.0405 126.02 46.4459 124.078 46.5518C122.376 46.638 120.67 46.638 118.968 46.5518C116.989 46.4569 115.412 45.1573 115.317 43.1569C115.142 39.6634 115.266 36.1553 115.266 32.5341H118.227C118.227 35.4909 118.303 38.3748 118.198 41.2732C118.136 43.0182 118.745 43.6387 120.512 43.5949C125.17 43.4781 124.754 44.0585 124.757 39.4152V32.3516Z" fill="white"/>
<path id="Vector_8" d="M72.7278 4.49117V7.41152H67.5515V23.4224H64.226V7.46993H58.9146V4.47656L72.7278 4.49117Z" fill="white"/>
<path id="Vector_9" d="M157.845 26.0762H160.766V46.0989H157.845V26.0762Z" fill="white"/>
<path id="Vector_10" d="M139.17 32.4539V35.5203C138.111 35.5203 137.159 35.5203 136.209 35.5203C134.158 35.5568 133.351 36.3307 133.318 38.3968C133.278 40.9521 133.318 43.4746 133.318 46.1175H130.369C130.369 42.9708 130.204 39.8789 130.423 36.8089C130.591 34.4215 132.679 32.6729 135.129 32.4685C136.385 32.3663 137.662 32.4539 139.17 32.4539Z" fill="white"/>
<path id="Vector_11" d="M35.6868 30.8765C36.0525 30.8782 36.414 30.9547 36.7491 31.1012C37.0842 31.2478 37.3858 31.4613 37.6354 31.7286C37.885 31.996 38.0772 32.3115 38.2004 32.6559C38.3235 33.0002 38.375 33.3661 38.3517 33.7311C38.3115 35.3263 37.1178 36.4105 35.4788 36.3375C34.7726 36.3203 34.1021 36.0234 33.6147 35.5121C33.1274 35.0007 32.863 34.3168 32.8796 33.6106C32.8825 33.2462 32.9576 32.886 33.1005 32.5507C33.2435 32.2155 33.4516 31.912 33.7126 31.6577C33.9737 31.4034 34.2826 31.2035 34.6215 31.0694C34.9603 30.9353 35.3224 30.8697 35.6868 30.8765Z" fill="#00E6E3"/>
<path id="Vector_12" d="M24.4873 33.7058C24.4545 35.3266 23.3375 36.3815 21.6984 36.3377C21.3359 36.3428 20.9763 36.2732 20.6419 36.1334C20.3074 35.9935 20.0054 35.7864 19.7544 35.5248C19.5034 35.2632 19.3089 34.9528 19.183 34.6129C19.0571 34.2729 19.0025 33.9107 19.0226 33.5488C19.0306 33.1869 19.1104 32.8301 19.2574 32.4993C19.4043 32.1684 19.6155 31.87 19.8787 31.6215C20.1419 31.3729 20.4518 31.179 20.7905 31.0512C21.1292 30.9233 21.4899 30.864 21.8517 30.8767C22.2144 30.8768 22.5732 30.9515 22.9057 31.0963C23.2383 31.241 23.5375 31.4527 23.7848 31.7181C24.032 31.9834 24.2219 32.2969 24.3428 32.6388C24.4637 32.9808 24.5129 33.344 24.4873 33.7058Z" fill="#00E6E3"/>
</g>
<defs>
<clipPath id="clip0_852_73">
<rect width="165" height="52.2013" fill="white" transform="translate(0 0.899414)"/>
</clipPath>
</defs>
</svg>
